<svg width="53" height="53" viewBox="0 0 53 53" fill="none" xmlns="http://www.w3.org/2000/svg">
<g filter="url(#filter0_d_18715_65)">
<rect x="4" width="45" height="45" fill="#8D86C9"/>
</g>
<g filter="url(#filter1_d_18715_65)">
<path fill-rule="evenodd" clip-rule="evenodd" d="M34.2498 22.5C34.2498 22.7569 34.1477 23.0033 33.966 23.185C33.7844 23.3667 33.538 23.4688 33.281 23.4688L22.0571 23.4688L26.2169 27.6266C26.307 27.7167 26.3784 27.8236 26.4272 27.9413C26.4759 28.059 26.501 28.1851 26.501 28.3125C26.501 28.4399 26.4759 28.566 26.4272 28.6837C26.3784 28.8014 26.307 28.9083 26.2169 28.9984C26.1268 29.0884 26.0199 29.1599 25.9022 29.2086C25.7845 29.2574 25.6584 29.2825 25.531 29.2825C25.4037 29.2825 25.2775 29.2574 25.1598 29.2086C25.0422 29.1599 24.9352 29.0884 24.8452 28.9984L19.0327 23.1859C18.9424 23.0959 18.8709 22.989 18.822 22.8713C18.7732 22.7536 18.748 22.6274 18.748 22.5C18.748 22.3726 18.7732 22.2464 18.822 22.1287C18.8709 22.011 18.9424 21.9041 19.0327 21.8141L24.8452 16.0016C25.0271 15.8197 25.2738 15.7175 25.531 15.7175C25.7883 15.7175 26.035 15.8197 26.2169 16.0016C26.3988 16.1835 26.501 16.4303 26.501 16.6875C26.501 16.9448 26.3988 17.1915 26.2169 17.3734L22.0571 21.5313L33.281 21.5313C33.538 21.5313 33.7844 21.6333 33.966 21.815C34.1477 21.9967 34.2498 22.2431 34.2498 22.5Z" fill="white"/>
</g>
<defs>
<filter id="filter0_d_18715_65" x="0" y="0" width="53" height="53" filterUnits="userSpaceOnUse" color-interpolation-filters="sRGB">
<feFlood flood-opacity="0" result="BackgroundImageFix"/>
<feColorMatrix in="SourceAlpha" type="matrix" values="0 0 0 0 0 0 0 0 0 0 0 0 0 0 0 0 0 0 127 0" result="hardAlpha"/>
<feOffset dy="4"/>
<feGaussianBlur stdDeviation="2"/>
<feComposite in2="hardAlpha" operator="out"/>
<feColorMatrix type="matrix" values="0 0 0 0 0 0 0 0 0 0 0 0 0 0 0 0 0 0 0.25 0"/>
<feBlend mode="normal" in2="BackgroundImageFix" result="effect1_dropShadow_18715_65"/>
<feBlend mode="normal" in="SourceGraphic" in2="effect1_dropShadow_18715_65" result="shape"/>
</filter>
<filter id="filter1_d_18715_65" x="7" y="7" width="39" height="39" filterUnits="userSpaceOnUse" color-interpolation-filters="sRGB">
<feFlood flood-opacity="0" result="BackgroundImageFix"/>
<feColorMatrix in="SourceAlpha" type="matrix" values="0 0 0 0 0 0 0 0 0 0 0 0 0 0 0 0 0 0 127 0" result="hardAlpha"/>
<feOffset dy="4"/>
<feGaussianBlur stdDeviation="2"/>
<feComposite in2="hardAlpha" operator="out"/>
<feColorMatrix type="matrix" values="0 0 0 0 0 0 0 0 0 0 0 0 0 0 0 0 0 0 0.25 0"/>
<feBlend mode="normal" in2="BackgroundImageFix" result="effect1_dropShadow_18715_65"/>
<feBlend mode="normal" in="SourceGraphic" in2="effect1_dropShadow_18715_65" result="shape"/>
</filter>
</defs>
</svg>
